<?xml version="1.0" encoding="UTF-8" standalone="no"?>
<!DOCTYPE svg PUBLIC "-//W3C//DTD SVG 1.1//EN" "http://www.w3.org/Graphics/SVG/1.1/DTD/svg11.dtd">
<svg width="100%" height="100%" viewBox="0 0 1568 1054" version="1.1" xmlns="http://www.w3.org/2000/svg" xmlns:xlink="http://www.w3.org/1999/xlink" xml:space="preserve" xmlns:serif="http://www.serif.com/" style="fill-rule:evenodd;clip-rule:evenodd;stroke-linejoin:round;stroke-miterlimit:2;">
    <g transform="matrix(1,0,0,1,-67.7698,-319.994)">
        <g id="Adam">
            <g transform="matrix(1,0,0,1,1139.91,1204.94)">
                <path d="M0,-572.121L407.566,-572.121C420.916,-572.121 434.079,-568.987 445.996,-562.972L447.234,-562.347C464.201,-553.783 478.677,-540.994 489.267,-525.212C493.062,-519.557 495.089,-512.899 495.089,-506.088L495.089,-89.958L387.798,0L387.798,-491.976L328.336,-491.976L328.336,-89.958L219.752,0L219.752,-491.976L160.29,-491.976L160.29,-88.666L55.585,0L55.585,-491.976L0,-572.121Z" style="fill:none;fill-rule:nonzero;stroke:white;stroke-width:10px;"/>
            </g>
            <g transform="matrix(1,0,0,1,1002.67,740.873)">
                <path d="M0,356.009L-20.699,356.009C-34.385,356.009 -47.131,349.05 -54.531,337.538C-58.173,331.874 -60.108,325.283 -60.108,318.551L-60.108,243.495C-60.108,233.525 -56.514,223.888 -49.983,216.353C-45.741,211.458 -39.583,208.646 -33.104,208.646L0,208.646L0,356.009ZM108.799,359.025L108.799,207.354L157.059,207.138L108.799,128.5L108.799,-46.357C108.799,-61.123 103.379,-75.376 93.568,-86.411L90.319,-90.065C80.146,-101.509 65.564,-108.056 50.253,-108.056L-115.763,-108.056C-127.999,-108.056 -139.94,-103.495 -148.636,-94.886C-160.943,-82.7 -167.831,-66.127 -167.831,-48.876L-167.831,121.176L-38.483,21.32C-46.168,21.046 -57.029,15.52 -58.408,7.955C-58.954,4.962 -59.246,2.216 -59.246,0.678L-59.246,-8.636C-59.246,-13.804 -57.193,-18.761 -53.539,-22.416C-50.021,-25.934 -45.249,-27.91 -40.272,-27.91L-1.938,-27.91L-1.938,126.346L-105.828,126.346C-120.222,126.346 -134.104,131.684 -144.792,141.325L-148.677,144.83C-160.87,155.831 -167.831,171.486 -167.831,187.908L-167.831,401.377C-167.831,415.272 -163.269,428.781 -154.846,439.831L-154.846,439.832C-143.207,455.103 -125.106,464.065 -105.905,464.065L163.953,464.065L108.799,359.025Z" style="fill:none;fill-rule:nonzero;stroke:white;stroke-width:10px;"/>
            </g>
            <g transform="matrix(1,0,0,1,663.02,431.928)">
                <path d="M0,661.076L-35.103,661.076C-44.385,661.076 -52.975,656.163 -57.681,648.162L-58.155,647.355C-61.333,641.951 -63.01,635.794 -63.01,629.524L-63.01,318.589C-63.01,307.697 -58.773,297.263 -51.246,289.467C-46.628,284.684 -37.135,281.034 -30.487,281.034L0,281.034L0,661.076ZM106.675,279.729L168.361,200.889L106.318,200.889L106.328,-111.934L-0.963,-34.375L-0.101,200.889L-70.459,200.889C-83.884,200.889 -97.171,203.606 -109.518,208.878L-112.944,210.34C-132.908,218.863 -149.333,233.992 -159.465,253.188C-165.308,264.26 -168.362,276.589 -168.362,289.107L-168.363,689.044C-168.363,698.224 -166.198,707.373 -161.542,715.286C-146.521,740.814 -122.048,759.459 -93.363,767.136L-85.117,769.343C-76.02,771.777 -66.643,773.01 -57.226,773.01L163.97,773.01L106.532,669.201C106.398,668.959 106.328,668.687 106.328,668.411L106.328,280.735C106.328,280.37 106.45,280.016 106.675,279.729" style="fill:none;fill-rule:nonzero;stroke:white;stroke-width:10px;"/>
            </g>
            <g transform="matrix(1,0,0,1,237.843,1276.3)">
                <path d="M0,-756.98L0,-462.642L102.104,-462.642L102.104,-756.98C102.104,-762.656 97.503,-767.257 91.827,-767.257L10.277,-767.257C4.602,-767.257 0,-762.656 0,-756.98M-111.574,97.659L-111.574,-416.478C-125.375,-426.154 -143.022,-443.673 -170.073,-462.642C-141.646,-462.642 -128.74,-462.44 -112.236,-462.523C-112.236,-558.892 -112.367,-654.65 -112.194,-750.407C-112.062,-823.071 -86.388,-850.352 -13.385,-852.604C33.064,-854.036 79.718,-854.639 126.071,-851.976C186.438,-848.507 214.008,-822.478 214.195,-766.326C215.046,-510.563 214.378,-254.796 214.157,0.969C214.154,3.779 212.819,6.587 210.889,14.191C180.496,38.538 147.054,65.328 107.75,96.814L107.75,-404.677L-2.127,-404.677L-2.127,10.12C-38.145,38.927 -70.84,65.079 -111.574,97.659" style="fill:none;fill-rule:nonzero;stroke:white;stroke-width:10px;"/>
            </g>
        </g>
    </g>
</svg>
